HIERARCHY
ROOT Hips
{
	OFFSET	0.0000	0.0000	0.0000
	CHANNELS 6 Xposition Yposition Zposition Xrotation Yrotation Zrotation
	JOINT Spine
	{
		OFFSET	0.0000	4.9371	9.1235
		CHANNELS 3 Xrotation Yrotation Zrotation
		JOINT Spine1
		{
			OFFSET	0.0000	-0.4349	8.3259
			CHANNELS 3 Xrotation Yrotation Zrotation
			JOINT Spine2
			{
				OFFSET	0.0000	2.2932	10.3024
				CHANNELS 3 Xrotation Yrotation Zrotation
				JOINT Neck
				{
					OFFSET	0.0000	0.4828	23.2160
					CHANNELS 3 Xrotation Yrotation Zrotation
					JOINT Head
					{
						OFFSET	0.0000	-3.5660	13.1103
						CHANNELS 3 Xrotation Yrotation Zrotation
						End Site
						{
							OFFSET	0.0001	-0.5469	18.3185
						}
					}
				}
				JOINT LeftShoulder
				{
					OFFSET	2.3438	-7.6759	22.4046
					CHANNELS 3 Xrotation Yrotation Zrotation
					JOINT LeftArm
					{
						OFFSET	13.6931	5.1999	3.2136
						CHANNELS 3 Xrotation Yrotation Zrotation
						JOINT LeftForeArm
						{
							OFFSET	29.0868	0.2520	-0.1033
							CHANNELS 3 Xrotation Yrotation Zrotation
							JOINT LeftHand
							{
								OFFSET	24.2645	0.1453	0.0704
								CHANNELS 3 Xrotation Yrotation Zrotation
								JOINT LeftHandIndex1
								{
									OFFSET	9.4042	-2.6120	0.8224
									CHANNELS 3 Xrotation Yrotation Zrotation
									JOINT LeftHandIndex2
									{
										OFFSET	3.5177	-0.6198	-0.8578
										CHANNELS 3 Xrotation Yrotation Zrotation
										JOINT LeftHandIndex3
										{
											OFFSET	2.4014	-0.4233	-0.5858
											CHANNELS 3 Xrotation Yrotation Zrotation
											End Site
											{
												OFFSET	1.7088	-0.2772	-0.5101
											}
										}
									}
								}
								JOINT LeftHandMiddle1
								{
									OFFSET	9.5446	-0.2274	0.9498
									CHANNELS 3 Xrotation Yrotation Zrotation
									JOINT LeftHandMiddle2
									{
										OFFSET	4.3494	0.0257	0.0121
										CHANNELS 3 Xrotation Yrotation Zrotation
										JOINT LeftHandMiddle3
										{
											OFFSET	2.4108	0.0147	0.0073
											CHANNELS 3 Xrotation Yrotation Zrotation
											End Site
											{
												OFFSET	2.1654	-0.0029	-0.1529
											}
										}
									}
								}
								JOINT LeftHandRing1
								{
									OFFSET	9.0454	2.1399	0.6337
									CHANNELS 3 Xrotation Yrotation Zrotation
									JOINT LeftHandRing2
									{
										OFFSET	3.9466	0.2471	-0.1998
										CHANNELS 3 Xrotation Yrotation Zrotation
										JOINT LeftHandRing3
										{
											OFFSET	2.2489	0.1413	-0.1131
											CHANNELS 3 Xrotation Yrotation Zrotation
											End Site
											{
												OFFSET	1.9885	0.0940	-0.2445
											}
										}
									}
								}
								JOINT LeftHandPinky1
								{
									OFFSET	8.3938	3.6958	-0.6379
									CHANNELS 3 Xrotation Yrotation Zrotation
									JOINT LeftHandPinky2
									{
										OFFSET	2.4275	0.6701	-0.5062
										CHANNELS 3 Xrotation Yrotation Zrotation
										JOINT LeftHandPinky3
										{
											OFFSET	1.7801	0.4917	-0.3708
											CHANNELS 3 Xrotation Yrotation Zrotation
											End Site
											{
												OFFSET	1.5800	0.3625	-0.4341
											}
										}
									}
								}
								JOINT LeftHandThumb1
								{
									OFFSET	1.9453	-1.4747	-1.4724
									CHANNELS 3 Xrotation Yrotation Zrotation
									JOINT LeftHandThumb2
									{
										OFFSET	3.6220	-2.7308	-1.1896
										CHANNELS 3 Xrotation Yrotation Zrotation
										JOINT LeftHandThumb3
										{
											OFFSET	2.3851	-1.7184	-0.8534
											CHANNELS 3 Xrotation Yrotation Zrotation
											End Site
											{
												OFFSET	1.7539	-1.2010	-0.6037
											}
										}
									}
								}
							}
						}
					}
				}
				JOINT RightShoulder
				{
					OFFSET	-2.3438	-7.6759	22.4046
					CHANNELS 3 Xrotation Yrotation Zrotation
					JOINT RightArm
					{
						OFFSET	-13.6955	5.2008	3.2142
						CHANNELS 3 Xrotation Yrotation Zrotation
						JOINT RightForeArm
						{
							OFFSET	-29.0868	0.2520	-0.1033
							CHANNELS 3 Xrotation Yrotation Zrotation
							JOINT RightHand
							{
								OFFSET	-24.2645	0.1453	0.0704
								CHANNELS 3 Xrotation Yrotation Zrotation
								JOINT RightHandIndex1
								{
									OFFSET	-9.4042	-2.6120	0.8224
									CHANNELS 3 Xrotation Yrotation Zrotation
									JOINT RightHandIndex2
									{
										OFFSET	-3.5177	-0.6198	-0.8578
										CHANNELS 3 Xrotation Yrotation Zrotation
										JOINT RightHandIndex3
										{
											OFFSET	-2.4014	-0.4233	-0.5858
											CHANNELS 3 Xrotation Yrotation Zrotation
											End Site
											{
												OFFSET	-1.7088	-0.2772	-0.5101
											}
										}
									}
								}
								JOINT RightHandMiddle1
								{
									OFFSET	-9.5446	-0.2274	0.9498
									CHANNELS 3 Xrotation Yrotation Zrotation
									JOINT RightHandMiddle2
									{
										OFFSET	-4.3494	0.0257	0.0121
										CHANNELS 3 Xrotation Yrotation Zrotation
										JOINT RightHandMiddle3
										{
											OFFSET	-2.4108	0.0147	0.0073
											CHANNELS 3 Xrotation Yrotation Zrotation
											End Site
											{
												OFFSET	-2.1654	-0.0029	-0.1529
											}
										}
									}
								}
								JOINT RightHandRing1
								{
									OFFSET	-9.0454	2.1399	0.6337
									CHANNELS 3 Xrotation Yrotation Zrotation
									JOINT RightHandRing2
									{
										OFFSET	-3.9466	0.2471	-0.1998
										CHANNELS 3 Xrotation Yrotation Zrotation
										JOINT RightHandRing3
										{
											OFFSET	-2.2489	0.1413	-0.1131
											CHANNELS 3 Xrotation Yrotation Zrotation
											End Site
											{
												OFFSET	-1.9885	0.0940	-0.2445
											}
										}
									}
								}
								JOINT RightHandPinky1
								{
									OFFSET	-8.3938	3.6958	-0.6379
									CHANNELS 3 Xrotation Yrotation Zrotation
									JOINT RightHandPinky2
									{
										OFFSET	-2.4275	0.6701	-0.5062
										CHANNELS 3 Xrotation Yrotation Zrotation
										JOINT RightHandPinky3
										{
											OFFSET	-1.7801	0.4917	-0.3708
											CHANNELS 3 Xrotation Yrotation Zrotation
											End Site
											{
												OFFSET	-1.5800	0.3625	-0.4341
											}
										}
									}
								}
								JOINT RightHandThumb1
								{
									OFFSET	-1.9453	-1.4747	-1.4724
									CHANNELS 3 Xrotation Yrotation Zrotation
									JOINT RightHandThumb2
									{
										OFFSET	-3.6220	-2.7308	-1.1896
										CHANNELS 3 Xrotation Yrotation Zrotation
										JOINT RightHandThumb3
										{
											OFFSET	-2.3851	-1.7184	-0.8534
											CHANNELS 3 Xrotation Yrotation Zrotation
											End Site
											{
												OFFSET	-1.7539	-1.2010	-0.6037
											}
										}
									}
								}
							}
						}
					}
				}
			}
		}
	}
	JOINT RightUpLeg
	{
		OFFSET	-9.7599	0.8045	4.1241
		CHANNELS 3 Xrotation Yrotation Zrotation
		JOINT RightLeg
		{
			OFFSET	-0.7810	0.0000	-42.4512
			CHANNELS 3 Xrotation Yrotation Zrotation
			JOINT RightFoot
			{
				OFFSET	0.0000	0.0000	-41.6845
				CHANNELS 3 Xrotation Yrotation Zrotation
				JOINT RightToeBase
				{
					OFFSET	0.0000	-9.5805	-4.5815
					CHANNELS 3 Xrotation Yrotation Zrotation
					End Site
					{
						OFFSET	0.0000	-6.4272	0.0000
					}
				}
			}
		}
	}
	JOINT LeftUpLeg
	{
		OFFSET	9.7598	0.8045	4.1244
		CHANNELS 3 Xrotation Yrotation Zrotation
		JOINT LeftLeg
		{
			OFFSET	0.7810	0.0000	-42.4515
			CHANNELS 3 Xrotation Yrotation Zrotation
			JOINT LeftFoot
			{
				OFFSET	0.0000	0.0000	-41.6845
				CHANNELS 3 Xrotation Yrotation Zrotation
				JOINT LeftToeBase
				{
					OFFSET	0.0000	-9.5805	-4.5815
					CHANNELS 3 Xrotation Yrotation Zrotation
					End Site
					{
						OFFSET	0.0000	-6.4272	0.0000
					}
				}
			}
		}
	}
}
MOTION
Frames:	4
Frame Time: 0.0333333000
	-0.3277	-127.3922	99.1457	-5.112033	3.636273	437.880100	0.000000	0.000000	-0.000003	5.896249	-2.323608	1.873706	19.996800	-6.898840	7.122625	0.000003	0.000009	0.000009	-0.000002	0.000000	0.000003	0.000006	14.069830	0.000012	40.953330	45.351280	-45.971460	-3.963072	0.145046	-66.530780	0.000000	0.000000	0.000000	0.000000	0.000000	0.000000	0.000000	0.000000	0.000000	0.000000	0.000000	0.000000	0.000000	0.000000	0.000000	0.000000	0.000000	0.000000	0.000000	0.000000	0.000000	0.000000	0.000000	0.000000	0.000000	0.000000	0.000000	0.000000	0.000000	0.000000	0.000000	0.000000	0.000000	0.000000	0.000000	0.000000	0.000000	0.000000	0.000000	0.000000	0.000000	0.000000	0.000000	0.000000	0.000000	0.000000	0.000000	0.000000	0.000006	-12.491830	0.000004	83.945330	-12.650440	50.099650	55.564260	-1.072817	150.222500	-0.000001	0.000006	-0.000005	0.000000	-0.000004	-0.000003	0.000000	-0.000004	-0.000003	0.000000	-0.000004	-0.000003	0.000000	-0.000004	-0.000003	0.000000	-0.000004	-0.000003	0.000000	-0.000004	-0.000003	0.000000	-0.000004	-0.000003	0.000000	-0.000004	-0.000003	0.000000	-0.000004	-0.000003	0.000000	-0.000004	-0.000003	0.000000	-0.000004	-0.000003	0.000000	-0.000004	-0.000003	0.000000	-0.000004	-0.000003	0.000000	-0.000004	-0.000003	0.000000	-0.000004	-0.000003	-27.685180	-2.544092	4.996821	34.098210	2.680584	3.632621	0.408582	-0.275022	0.578827	-0.000002	-0.000003	0.000000	-3.863722	-5.872497	2.604435	12.677700	0.711600	3.021013	-0.091170	-0.310371	0.648845	-0.000002	-0.000003	0.000000
	-0.2543	-127.1313	99.6612	-5.069194	4.177808	437.752200	0.000000	0.000000	-0.000003	5.827630	-2.185415	1.651014	19.722590	-6.544403	6.323549	0.000013	-0.000005	-0.000014	-0.000006	0.000004	0.000021	0.000007	14.129550	-0.000009	41.409280	45.363200	-43.838520	-2.422282	0.160647	-68.413780	-0.000002	0.000001	0.000009	-0.000001	0.000009	0.000000	0.000000	0.000000	0.000000	0.000000	0.000000	0.000000	-0.000001	0.000009	0.000000	0.000000	0.000000	0.000000	0.000000	0.000000	0.000000	-0.000001	0.000009	0.000000	0.000000	0.000000	0.000000	0.000000	0.000000	0.000000	-0.000001	0.000009	0.000000	0.000000	0.000000	0.000000	0.000000	0.000000	0.000000	-0.000001	0.000009	0.000000	0.000000	0.000000	0.000000	0.000000	0.000000	0.000000	0.000004	-13.355250	-0.000005	85.289610	-15.833490	53.865460	52.446940	-1.076335	136.287900	-0.000004	-0.000012	0.000001	0.000000	0.000000	0.000000	-0.000005	0.000004	-0.000003	0.000000	0.000000	0.000000	0.000000	0.000000	0.000000	-0.000005	0.000004	-0.000003	0.000000	0.000000	0.000000	0.000000	0.000000	0.000000	-0.000005	0.000004	-0.000003	0.000000	0.000000	0.000000	0.000000	0.000000	0.000000	-0.000005	0.000004	-0.000003	0.000000	0.000000	0.000000	0.000000	0.000000	0.000000	-0.000005	0.000004	-0.000003	0.000000	0.000000	0.000000	-28.127870	-2.500763	4.700089	32.615630	2.438397	3.466913	0.420841	-0.465620	0.985317	0.000005	0.000006	0.000000	-4.375048	-5.820433	1.512794	11.451160	0.451066	1.978691	-0.089299	-0.655679	1.363965	-0.000003	0.000003	-0.000004
	0.0383	-126.6054	99.9815	-4.787472	3.920644	438.906600	0.000000	0.000000	0.000000	5.843942	-2.067281	1.178366	19.700660	-6.343702	4.714099	0.000000	0.000000	0.000003	0.000000	0.000000	0.000003	-0.000010	14.166780	-0.000012	41.274760	45.782780	-41.408490	-1.515362	0.123654	-68.472790	-0.000011	0.000012	0.000016	0.000002	0.000002	-0.000004	-0.000003	0.000000	0.000000	-0.000003	0.000000	0.000000	0.000002	0.000002	-0.000004	-0.000003	0.000000	0.000000	-0.000003	0.000000	0.000000	0.000002	0.000002	-0.000004	-0.000003	0.000000	0.000000	-0.000003	0.000000	0.000000	0.000002	0.000002	-0.000004	-0.000003	0.000000	0.000000	-0.000003	0.000000	0.000000	0.000002	0.000002	-0.000004	-0.000003	0.000000	0.000000	-0.000003	0.000000	0.000000	-0.000006	-13.803860	0.000016	86.701440	-19.082980	56.365240	49.967270	-0.866638	121.661100	0.000006	0.000004	0.000014	0.000000	0.000000	0.000000	0.000000	0.000000	0.000000	0.000002	0.000002	-0.000001	0.000000	0.000000	0.000000	0.000000	0.000000	0.000000	0.000002	0.000002	-0.000001	0.000000	0.000000	0.000000	0.000000	0.000000	0.000000	0.000002	0.000002	-0.000001	0.000000	0.000000	0.000000	0.000000	0.000000	0.000000	0.000002	0.000002	-0.000001	0.000000	0.000000	0.000000	0.000000	0.000000	0.000000	0.000002	0.000002	-0.000001	-27.394500	-0.830086	3.476467	31.125090	1.505994	2.159632	0.599972	-0.566594	1.201798	0.000000	0.000000	-0.000003	-4.080258	-4.998819	0.701197	10.117570	0.224083	1.119188	0.291505	-0.987561	2.075097	-0.000004	0.000005	0.000000
	0.2837	-126.1482	100.0983	-4.770013	3.540054	440.516900	0.000000	0.000000	0.000000	5.910125	-2.051773	0.631682	19.850720	-6.504963	2.909799	-0.000002	-0.000003	0.000008	-0.000003	0.000002	-0.000004	-0.000008	14.156580	-0.000004	40.799590	46.233930	-39.682300	-1.303755	0.113953	-66.425130	0.000000	0.000000	0.000000	0.000000	0.000000	0.000000	0.000000	0.000000	0.000000	0.000000	0.000000	0.000000	0.000000	0.000000	0.000000	0.000000	0.000000	0.000000	0.000000	0.000000	0.000000	0.000000	0.000000	0.000000	0.000000	0.000000	0.000000	0.000000	0.000000	0.000000	0.000000	0.000000	0.000000	0.000000	0.000000	0.000000	0.000000	0.000000	0.000000	0.000000	0.000000	0.000000	0.000000	0.000000	0.000000	0.000000	0.000000	0.000000	-0.000001	-13.830600	-0.000009	88.672490	-21.893070	57.833480	48.915020	-0.670982	109.968600	0.000002	-0.000006	0.000002	0.000003	0.000010	-0.000005	-0.000004	-0.000004	0.000003	0.000000	0.000000	0.000000	0.000003	0.000010	-0.000005	-0.000004	-0.000004	0.000003	0.000000	0.000000	0.000000	0.000003	0.000010	-0.000005	-0.000004	-0.000004	0.000003	0.000000	0.000000	0.000000	0.000003	0.000010	-0.000005	-0.000004	-0.000004	0.000003	0.000000	0.000000	0.000000	0.000003	0.000010	-0.000005	-0.000004	-0.000004	0.000003	0.000000	0.000000	0.000000	-26.457680	0.735778	1.985257	30.347930	0.526504	0.606257	0.625064	-0.444897	0.943254	-0.000001	0.000000	0.000010	-4.133281	-4.813734	1.826464	10.325520	0.406041	2.230692	0.533179	-0.990795	2.103877	-0.000005	0.000000	0.000000
